<svg xmlns="http://www.w3.org/2000/svg" viewBox="0 0 800 1000" role="img" aria-labelledby="title desc">
  <title id="title">Aruna Studio concept study</title>
  <desc id="desc">An abstract ink, blue, and ivory composition for a photography concept.</desc>
  <rect width="800" height="1000" fill="#111111"/>
  <path d="M0 0h800v320c-170 85-344 128-521 128-101 0-194-11-279-33Z" fill="#53648a"/>
  <path d="M0 1000V528c158-83 323-123 496-119 111 3 212 22 304 56v535Z" fill="#f6f3ee"/>
  <path d="M98 210 401 96l222 116-304 135Z" fill="#2046f2" fill-opacity=".86"/>
  <path d="M208 716c75-104 171-157 288-157 87 0 157 31 210 93-78 105-174 157-289 157-88 0-158-31-209-93Z" fill="#2046f2" fill-opacity=".92"/>
  <circle cx="493" cy="637" r="42" fill="#f6f3ee"/>
</svg>
